Hotel Transilvânia (2012)  - 1080p 3D DUBLADO - PT-BR - DEJAVUBR

=======================================================
==== w w w . t h e p i r a t e f i l m e s . c o m ==== 
=======================================================

O Hotel Transilvânia é um resort cinco estrelas que serve de refúgio para que os monstros possam descansar do árduo trabalho de perseguir e assustar os humanos. O local é comandado pelo Conde Drácula (Adam Sandler), que resolve convidar os amigos para comemorar, ao longo de um fim de semana, o 118º aniversário de sua filha Mavis (Selena Gomez). O que ele não esperava era que Jonathan (Adam Samberg), um humano sem noção, fosse aparecer no local justo quando o hotel está repleto de convidados e, ainda por cima, se apaixonasse por Mavis.

Lançamento: 	5 de outubro de 2012 (1h 31min) 
Dirigido por:	Genndy Tartakovsky
Com:		Adam Sandler, Andy Samberg, Selena Gomez mais
Gênero:		Animação , Comédia , Ação
Nacionalidade:	EUA
Formato: 	MP4
Qualidade: 	1080p (Full HD) 3D(HSBS) 
Idioma: 	PT-BR (Audio 5.1)
OBS:		Filmes 3D só funcionam em TVs ou Monitores 3D

PARA MAIS FILMES VISITEM:
=======================================================
==== w w w . t h e p i r a t e f i l m e s . c o m ====
=======================================================	

AO FIM DO DOWNLOAD FIQUE SEMEANDO/ENVIANDO, PARA QUE EU POSSA ENVIAR OUTROS FILMES COM QUALIDADE! Obrigado!


INFO:

Video
ID                             : 1
Format                         : AVC
Format/Info                    : Advanced Video Codec
Format profile                 : High@L4.0
Format settings, CABAC         : Yes
Format settings, ReFrames      : 3 frames
Codec ID                       : avc1
Codec ID/Info                  : Advanced Video Coding
Duration                       : 1h 31mn
Bit rate                       : 2 252 Kbps
Width                          : 1 920 pixels
Height                         : 1 080 pixels
Display aspect ratio           : 16:9
Frame rate mode                : Variable
Frame rate                     : 23.976 fps
Minimum frame rate             : 23.976 fps
Maximum frame rate             : 24.024 fps
Color space                    : YUV
Chroma subsampling             : 4:2:0
Bit depth                      : 8 bits
Scan type                      : Progressive
Bits/(Pixel*Frame)             : 0.045
Stream size                    : 1.44 GiB (97%)
Writing library                : x264 core 129 r2230 1cffe9f
Encoding settings              : cabac=1 / ref=4 / deblock=1:0:0 / analyse=0x3:0x133 / me=umh / subme=9 / psy=1 / psy_rd=1.00:0.00 / mixed_ref=1 / me_range=16 / chroma_me=1 / trellis=2 / 8x8dct=1 / cqm=0 / deadzone=21,11 / fast_pskip=1 / chroma_qp_offset=-2 / threads=12 / lookahead_threads=2 / sliced_threads=0 / nr=0 / decimate=1 / interlaced=0 / bluray_compat=0 / constrained_intra=0 / bframes=3 / b_pyramid=1 / b_adapt=2 / b_bias=0 / direct=3 / weightb=1 / open_gop=0 / weightp=2 / keyint=240 / keyint_min=23 / scenecut=40 / intra_refresh=0 / rc_lookahead=60 / rc=2pass / mbtree=1 / bitrate=2252 / ratetol=1.0 / qcomp=0.60 / qpmin=10 / qpmax=51 / qpstep=4 / cplxblur=20.0 / qblur=0.5 / ip_ratio=1.40 / aq=1:1.00

Audio
ID                             : 2
Format                         : AAC
Format/Info                    : Advanced Audio Codec
Format profile                 : HE-AACv2 / HE-AAC / LC
Codec ID                       : 40
Duration                       : 1h 31mn
Bit rate mode                  : Constant
Bit rate                       : 64.3 Kbps
Channel(s)                     : 2 channels / 1 channel / 1 channel
Channel positions              : Front: L R / Front: C / Front: C
Sampling rate                  : 44.1 KHz / 44.1 KHz / 22.05 KHz
Compression mode               : Lossy
Stream size                    : 42.1 MiB (3%)